<svg width="22" height="17" viewBox="0 0 22 17" fill="none" xmlns="http://www.w3.org/2000/svg">
<path d="M7.66827 16.0319C7.48423 16.0319 7.30626 15.9972 7.13434 15.9277C6.96242 15.8594 6.79602 15.7448 6.63512 15.5839L0.814787 9.76357C0.539281 9.48806 0.407589 9.13817 0.419712 8.71389C0.430732 8.28851 0.573995 7.93807 0.849501 7.66256C1.12501 7.38705 1.46939 7.2493 1.88265 7.2493C2.29591 7.2493 2.64029 7.38705 2.91579 7.66256L7.7377 12.4845L19.137 1.08513C19.4125 0.809628 19.7509 0.671875 20.152 0.671875C20.5542 0.671875 20.8931 0.809628 21.1686 1.08513C21.4441 1.36064 21.5819 1.69951 21.5819 2.10175C21.5819 2.50289 21.4441 2.84121 21.1686 3.11671L8.70142 15.5839C8.54052 15.7448 8.37412 15.8594 8.2022 15.9277C8.03028 15.9972 7.85231 16.0319 7.66827 16.0319Z" fill="white"/>
</svg>
