<svg width="46" height="50" viewBox="0 0 46 50" fill="none" xmlns="http://www.w3.org/2000/svg">
<path fill-rule="evenodd" clip-rule="evenodd" d="M9.94013 32.94V43.5998C9.94013 43.9507 10.2235 44.2369 10.5708 44.2369H21.4637C28.5099 44.2369 33.7044 41.1387 36.945 36.6815C37.0634 36.5186 37.0979 36.3284 37.0443 36.1337C36.9907 35.9388 36.8638 35.794 36.679 35.7164C24.815 30.7281 14.4862 21.9399 5.69238 9.35253C5.53128 9.12192 5.25256 9.02707 4.98631 9.11256C4.71995 9.19794 4.54639 9.43758 4.54639 9.71979V14.928C4.54639 15.0715 4.58699 15.1949 4.67206 15.3098C9.22656 21.4562 14.9888 26.8504 21.9584 31.4925C22.2417 31.6811 22.3265 32.0626 22.1501 32.3554C21.9747 32.647 21.6029 32.747 21.3071 32.5823C16.6629 29.9982 12.322 26.9552 8.2847 23.4531C8.09337 23.2871 7.83959 23.2511 7.61052 23.3575C7.38146 23.4638 7.2432 23.6817 7.2432 23.9364V27.4536C7.2432 27.6555 7.32662 27.8292 7.48363 27.9542C9.70245 29.7194 12.0519 31.3625 14.5318 32.8834C14.8203 33.0603 14.9199 33.435 14.7577 33.7339C14.5957 34.0328 14.2301 34.1499 13.9274 34.0002C12.8979 33.4915 11.8819 32.9527 10.8794 32.3844C10.6787 32.2705 10.4508 32.2726 10.2522 32.3901C10.0534 32.5077 9.94013 32.7073 9.94013 32.9399V32.94Z" fill="#CC3366"/>
<path fill-rule="evenodd" clip-rule="evenodd" d="M8.69115 5.85917C16.5383 20.2902 26.1394 29.9463 37.494 34.8275C37.7929 34.956 38.1364 34.8365 38.2934 34.5493C44.6575 22.906 39.5844 4.9151 21.6419 4.9151H9.24395C9.01466 4.9151 8.81782 5.02857 8.70108 5.22797C8.58434 5.42737 8.5807 5.6562 8.69115 5.85917Z" fill="#CC3366"/>
</svg>
