<svg width="46" height="50" viewBox="0 0 46 50" fill="none" xmlns="http://www.w3.org/2000/svg">
<path fill-rule="evenodd" clip-rule="evenodd" d="M9.94013 33.4918V44.1516C9.94013 44.5024 10.2235 44.7887 10.5708 44.7887H21.4637C28.5099 44.7887 33.7044 41.6904 36.945 37.2332C37.0634 37.0704 37.0979 36.8801 37.0443 36.6854C36.9907 36.4906 36.8638 36.3458 36.679 36.2681C24.815 31.2798 14.4862 22.4917 5.69238 9.90429C5.53128 9.67368 5.25256 9.57883 4.98631 9.66432C4.71995 9.74969 4.54639 9.98933 4.54639 10.2715V15.4797C4.54639 15.6233 4.58699 15.7467 4.67206 15.8616C9.22656 22.0079 14.9888 27.4022 21.9584 32.0442C22.2417 32.2328 22.3265 32.6143 22.1501 32.9072C21.9747 33.1987 21.6029 33.2987 21.3071 33.1341C16.6629 30.55 12.322 27.5069 8.2847 24.0049C8.09337 23.8389 7.83959 23.8029 7.61052 23.9092C7.38146 24.0156 7.2432 24.2335 7.2432 24.4881V28.0054C7.2432 28.2072 7.32662 28.381 7.48363 28.5059C9.70245 30.2711 12.0519 31.9143 14.5318 33.4351C14.8203 33.612 14.9199 33.9868 14.7577 34.2857C14.5957 34.5845 14.2301 34.7017 13.9274 34.552C12.8979 34.0433 11.8819 33.5045 10.8794 32.9361C10.6787 32.8222 10.4508 32.8243 10.2522 32.9418C10.0534 33.0594 9.94013 33.259 9.94013 33.4917V33.4918Z" fill="#CC3366"/>
<path fill-rule="evenodd" clip-rule="evenodd" d="M8.69115 6.41086C16.5383 20.8419 26.1394 30.498 37.494 35.3792C37.7929 35.5077 38.1364 35.3882 38.2934 35.101C44.6575 23.4576 39.5844 5.4668 21.6419 5.4668H9.24395C9.01466 5.4668 8.81782 5.58026 8.70108 5.77966C8.58434 5.97907 8.5807 6.20789 8.69115 6.41086Z" fill="#CC3366"/>
</svg>
