<svg width="30" height="31" viewBox="0 0 30 31" fill="none" xmlns="http://www.w3.org/2000/svg">
<circle cx="15" cy="15.1279" r="15" fill="#333333"/>
<path d="M14.2279 12.4775H14.5613C15.299 12.4775 15.8983 11.8819 15.9028 11.1441V8.97336C15.8896 8.24518 15.2977 7.66058 14.5694 7.65625H14.236C13.4983 7.65625 12.899 8.25189 12.8945 8.98964V11.1604C12.9078 11.8886 13.4996 12.4733 14.2279 12.4775ZM13.8946 8.8921C13.8948 8.61374 14.1206 8.38813 14.399 8.38834C14.6771 8.38855 14.9026 8.61395 14.9027 8.8921V11.2255C14.9025 11.5038 14.6767 11.7294 14.3983 11.7292C14.1202 11.729 13.8948 11.5036 13.8946 11.2255V8.8921Z" fill="#FDFDFD"/>
<path d="M10.2682 12.3963H11.4471V9.80278L12.7886 6.12793H11.691L10.8779 8.567L10.0649 6.12793H8.85352L10.2844 9.80278L10.2682 12.3963Z" fill="#FDFDFD"/>
<path d="M17.5852 12.4775C18.0598 12.4319 18.5044 12.2253 18.8454 11.8922V12.3963H19.8211V7.65632H18.8454V11.3312C18.8454 11.3312 18.512 11.7214 18.195 11.7214C17.8779 11.7214 17.8616 11.4694 17.8616 11.4694V7.65625H16.8291V11.8271C16.8855 12.2012 17.207 12.4777 17.5852 12.4775Z" fill="#FDFDFD"/>
<path d="M16.9191 17.9253C16.7232 17.9349 16.5403 18.0263 16.415 18.1773V21.5433C16.5437 21.6855 16.7274 21.7655 16.9191 21.7628C17.4233 21.7628 17.4233 21.2018 17.4233 21.2018V18.4863C17.4233 18.4863 17.3338 17.9253 16.9191 17.9253Z" fill="#FDFDFD"/>
<path d="M20.7805 17.9253C20.2764 17.9253 20.2764 18.4863 20.2764 18.4863V19.2098H21.2845V18.4863C21.2845 18.4863 21.2846 17.9253 20.7805 17.9253Z" fill="#FDFDFD"/>
<path d="M21.1564 13.5174C21.1423 13.5176 21.1282 13.5179 21.1141 13.5184H21.0978C21.0978 13.5184 18.0327 13.3477 14.9432 13.3477C11.8537 13.3477 8.77235 13.5102 8.77235 13.5102C7.42604 13.4653 6.2982 14.5203 6.25335 15.8667C6.25244 15.8942 6.25195 15.9218 6.25202 15.9493C6.09677 16.9721 6.01251 18.0044 6 19.0388C6.01146 20.0841 6.09565 21.1273 6.25202 22.1609C6.25125 23.5079 7.34268 24.6006 8.68976 24.6013C8.71729 24.6013 8.74489 24.6008 8.77242 24.5999C8.77242 24.5999 11.805 24.7625 14.9433 24.7625C18.0816 24.7625 21.1142 24.5999 21.1142 24.5999C22.4605 24.6449 23.5883 23.5898 23.6332 22.2435C23.6341 22.216 23.6346 22.1884 23.6345 22.1609C23.7901 21.1272 23.8743 20.0841 23.8865 19.0388C23.8762 17.9935 23.792 16.9502 23.6345 15.9168C23.6128 14.57 22.5033 13.4956 21.1564 13.5174ZM11.2928 16.242H10.0651V22.5674H8.85368V16.242H7.626V15.2013H11.3171L11.2928 16.242ZM14.488 22.5674H13.4717V22.0877C13.1258 22.4098 12.6823 22.6072 12.2115 22.6487C11.8333 22.6566 11.5088 22.3809 11.4554 22.0064V17.0388H12.5042V21.6812C12.5042 21.6812 12.5042 21.9251 12.8376 21.9251C13.1709 21.9251 13.5124 21.5267 13.5124 21.5267V17.0388H14.5205L14.488 22.5674ZM17.5043 22.6487C17.0766 22.6525 16.6724 22.4535 16.4148 22.1121V22.5674H15.3172V15.2014H16.4067V17.5917C16.6856 17.2758 17.0761 17.0805 17.4962 17.047C18.171 17.047 18.423 17.6079 18.423 18.3315L18.4311 21.3641C18.4311 21.3641 18.4311 22.6487 17.5043 22.6487ZM22.3743 20.0307H20.2766V21.234C20.2766 21.234 20.2766 21.795 20.7807 21.795C21.2849 21.795 21.2849 21.234 21.2849 21.234V20.6649H22.3743V21.5429C22.2285 22.2468 21.578 22.7295 20.8621 22.6649C20.1205 22.7317 19.4368 22.2599 19.236 21.5429V18.4047C19.2586 17.6237 19.91 17.0089 20.691 17.0315C20.7483 17.0332 20.8054 17.0383 20.8621 17.0469C21.5866 16.9432 22.258 17.4465 22.3618 18.171C22.3729 18.2483 22.3771 18.3266 22.3743 18.4047V20.0307H22.3743Z" fill="#FDFDFD"/>
</svg>
