<svg width="180" height="53" viewBox="0 0 180 53" fill="none" xmlns="http://www.w3.org/2000/svg">
<path d="M173.333 52.3521H6.66667C3.00167 52.3521 0 49.4254 0 45.8521V6.85205C0 3.27868 3.00167 0.352054 6.66667 0.352054H173.333C176.998 0.352054 180 3.27868 180 6.85205V45.8521C180 49.4254 176.998 52.3521 173.333 52.3521Z" fill="white"/>
<path d="M173.333 1.39368C176.42 1.39368 178.932 3.84255 178.932 6.85205V45.8521C178.932 48.8616 176.42 51.3104 173.333 51.3104H6.66667C3.58 51.3104 1.06833 48.8616 1.06833 45.8521V6.85205C1.06833 3.84255 3.58 1.39368 6.66667 1.39368H173.333ZM173.333 0.352054H6.66667C3.00167 0.352054 0 3.27868 0 6.85205V45.8521C0 49.4254 3.00167 52.3521 6.66667 52.3521H173.333C176.998 52.3521 180 49.4254 180 45.8521V6.85205C180 3.27868 176.998 0.352054 173.333 0.352054Z" fill="#A6A6A6"/>
<path d="M12.9133 10.1525C12.5216 10.5522 12.2949 11.1746 12.2949 11.9806V40.7301C12.2949 41.5361 12.5216 42.1585 12.9133 42.5582L13.0099 42.646L29.5332 26.5422V26.162L13.0099 10.0582L12.9133 10.1525Z" fill="black"/>
<path d="M37.0349 31.9126L31.5332 26.542V26.1617L37.0415 20.7911L37.1649 20.861L43.6882 24.4798C45.5499 25.5068 45.5499 27.1968 43.6882 28.2303L37.1649 31.8427L37.0349 31.9126Z" fill="black"/>
<path d="M36.1647 32.8428L30.5331 27.3519L13.9131 43.558C14.5314 44.1918 15.5398 44.2681 16.6864 43.6344L36.1647 32.8428Z" fill="black"/>
<path d="M36.1647 19.8612L16.6864 9.06956C15.5398 8.44231 14.5314 8.51868 13.9131 9.15243L30.5331 25.3521L36.1647 19.8612Z" fill="black"/>
<path d="M63.2234 13.6692C63.2234 14.7547 62.8901 15.6241 62.2334 16.2725C61.4784 17.0411 60.4951 17.4279 59.2901 17.4279C58.1384 17.4279 57.155 17.0346 56.3484 16.2595C55.54 15.473 55.1367 14.5077 55.1367 13.3524C55.1367 12.197 55.54 11.2317 56.3484 10.4517C57.155 9.67011 58.1384 9.27686 59.2901 9.27686C59.8634 9.27686 60.41 9.39223 60.9317 9.60673C61.4517 9.82286 61.875 10.1154 62.1817 10.4761L61.4851 11.1619C60.95 10.546 60.2217 10.2421 59.2901 10.2421C58.4501 10.2421 57.7217 10.5281 57.1034 11.105C56.4917 11.6835 56.185 12.4326 56.185 13.3524C56.185 14.2721 56.4917 15.0277 57.1034 15.6062C57.7217 16.1766 58.4501 16.4691 59.2901 16.4691C60.1817 16.4691 60.9317 16.1766 61.5234 15.5997C61.9134 15.2179 62.1351 14.6914 62.1934 14.0186H59.2901V13.0794H63.1634C63.2101 13.2825 63.2234 13.4791 63.2234 13.6692Z" fill="black" stroke="black" stroke-width="0.16" stroke-miterlimit="10"/>
<path d="M69.3685 10.4127H65.7302V12.8827H69.0102V13.8219H65.7302V16.2919H69.3685V17.2491H64.7002V9.45557H69.3685V10.4127Z" fill="black" stroke="black" stroke-width="0.16" stroke-miterlimit="10"/>
<path d="M73.705 17.2491H72.675V10.4127H70.4434V9.45557H75.9384V10.4127H73.705V17.2491Z" fill="black" stroke="black" stroke-width="0.16" stroke-miterlimit="10"/>
<path d="M79.915 17.2491V9.45557H80.9434V17.2491H79.915Z" fill="black" stroke="black" stroke-width="0.16" stroke-miterlimit="10"/>
<path d="M85.5019 17.2491H84.4802V10.4127H82.2402V9.45557H87.7419V10.4127H85.5019V17.2491Z" fill="black" stroke="black" stroke-width="0.16" stroke-miterlimit="10"/>
<path d="M98.1451 16.2465C97.3568 17.0346 96.3801 17.4279 95.2151 17.4279C94.0434 17.4279 93.0668 17.0346 92.2784 16.2465C91.4918 15.46 91.1001 14.4947 91.1001 13.3524C91.1001 12.21 91.4918 11.2447 92.2784 10.4582C93.0668 9.67011 94.0434 9.27686 95.2151 9.27686C96.3734 9.27686 97.3501 9.67011 98.1384 10.4647C98.9318 11.2577 99.3234 12.2165 99.3234 13.3524C99.3234 14.4947 98.9318 15.46 98.1451 16.2465ZM93.0401 15.5932C93.6334 16.1766 94.3551 16.4691 95.2151 16.4691C96.0684 16.4691 96.7968 16.1766 97.3834 15.5932C97.9751 15.0099 98.2751 14.2607 98.2751 13.3524C98.2751 12.444 97.9751 11.6949 97.3834 11.1115C96.7968 10.5281 96.0684 10.2356 95.2151 10.2356C94.3551 10.2356 93.6334 10.5281 93.0401 11.1115C92.4484 11.6949 92.1484 12.444 92.1484 13.3524C92.1484 14.2607 92.4484 15.0099 93.0401 15.5932Z" fill="black" stroke="black" stroke-width="0.16" stroke-miterlimit="10"/>
<path d="M100.769 17.2491V9.45557H102.019L105.905 15.5168H105.95L105.905 14.0186V9.45557H106.934V17.2491H105.86L101.79 10.8888H101.745L101.79 12.3936V17.2491H100.769Z" fill="black" stroke="black" stroke-width="0.16" stroke-miterlimit="10"/>
<path d="M90.8469 28.6303C87.7152 28.6303 85.1569 30.9541 85.1569 34.1602C85.1569 37.3403 87.7152 39.6885 90.8469 39.6885C93.9852 39.6885 96.5435 37.3403 96.5435 34.1602C96.5435 30.9541 93.9852 28.6303 90.8469 28.6303ZM90.8469 37.511C89.1285 37.511 87.6502 36.1281 87.6502 34.1602C87.6502 32.1663 89.1285 30.8078 90.8469 30.8078C92.5652 30.8078 94.0502 32.1663 94.0502 34.1602C94.0502 36.1281 92.5652 37.511 90.8469 37.511ZM78.4319 28.6303C75.2935 28.6303 72.7419 30.9541 72.7419 34.1602C72.7419 37.3403 75.2935 39.6885 78.4319 39.6885C81.5685 39.6885 84.1219 37.3403 84.1219 34.1602C84.1219 30.9541 81.5685 28.6303 78.4319 28.6303ZM78.4319 37.511C76.7119 37.511 75.2285 36.1281 75.2285 34.1602C75.2285 32.1663 76.7119 30.8078 78.4319 30.8078C80.1502 30.8078 81.6285 32.1663 81.6285 34.1602C81.6285 36.1281 80.1502 37.511 78.4319 37.511ZM63.6585 30.3252V32.675H69.4135C69.2452 33.988 68.7952 34.9532 68.1052 35.626C67.2652 36.4385 65.9569 37.3403 63.6585 37.3403C60.1169 37.3403 57.3435 34.5535 57.3435 31.1003C57.3435 27.6472 60.1169 24.8603 63.6585 24.8603C65.5735 24.8603 66.9669 25.59 67.9952 26.5357L69.6935 24.8798C68.2552 23.5408 66.3419 22.5122 63.6585 22.5122C58.8019 22.5122 54.7202 26.3651 54.7202 31.1003C54.7202 35.8356 58.8019 39.6885 63.6585 39.6885C66.2835 39.6885 68.2552 38.85 69.8052 37.277C71.3935 35.7283 71.8885 33.5508 71.8885 31.7926C71.8885 31.2466 71.8419 30.7445 71.7585 30.3252H63.6585ZM124.069 32.1468C123.6 30.9102 122.155 28.6303 119.212 28.6303C116.295 28.6303 113.867 30.8712 113.867 34.1602C113.867 37.2575 116.27 39.6885 119.492 39.6885C122.097 39.6885 123.6 38.1398 124.219 37.238L122.285 35.9818C121.64 36.9016 120.762 37.511 119.492 37.511C118.23 37.511 117.325 36.9471 116.745 35.8356L124.33 32.7757L124.069 32.1468ZM116.335 33.988C116.27 31.856 118.034 30.764 119.297 30.764C120.287 30.764 121.127 31.2466 121.407 31.9372L116.335 33.988ZM110.17 39.3521H112.664V23.1021H110.17V39.3521ZM106.087 29.8621H106.004C105.444 29.2153 104.375 28.6303 103.022 28.6303C100.182 28.6303 97.5852 31.0613 97.5852 34.1781C97.5852 37.277 100.182 39.6885 103.022 39.6885C104.375 39.6885 105.444 39.0986 106.004 38.4323H106.087V39.2253C106.087 41.3395 104.929 42.4753 103.06 42.4753C101.537 42.4753 100.592 41.4028 100.202 40.501L98.0335 41.3833C98.6585 42.8491 100.314 44.6528 103.06 44.6528C105.984 44.6528 108.45 42.9758 108.45 38.8955V28.9667H106.087V29.8621ZM103.235 37.511C101.517 37.511 100.079 36.1086 100.079 34.1781C100.079 32.2297 101.517 30.8078 103.235 30.8078C104.929 30.8078 106.264 32.2297 106.264 34.1781C106.264 36.1086 104.929 37.511 103.235 37.511ZM135.742 23.1021H129.779V39.3521H132.265V33.195H135.742C138.504 33.195 141.212 31.2466 141.212 28.1477C141.212 25.0505 138.497 23.1021 135.742 23.1021ZM135.807 30.9346H132.265V25.3625H135.807C137.664 25.3625 138.724 26.8656 138.724 28.1477C138.724 29.4055 137.664 30.9346 135.807 30.9346ZM151.179 28.5995C149.382 28.5995 147.514 29.373 146.745 31.0873L148.952 31.9892C149.427 31.0873 150.3 30.7948 151.224 30.7948C152.514 30.7948 153.822 31.5505 153.842 32.8846V33.0552C153.392 32.8017 152.429 32.4263 151.244 32.4263C148.867 32.4263 146.445 33.702 146.445 36.0826C146.445 38.2601 148.392 39.6625 150.58 39.6625C152.254 39.6625 153.177 38.9263 153.757 38.07H153.842V39.3261H156.244V33.0926C156.244 30.2115 154.037 28.5995 151.179 28.5995ZM150.879 37.5045C150.065 37.5045 148.932 37.1112 148.932 36.1281C148.932 34.8703 150.345 34.3877 151.569 34.3877C152.664 34.3877 153.177 34.6233 153.842 34.9337C153.647 36.4385 152.319 37.5045 150.879 37.5045ZM164.994 28.9553L162.135 35.9997H162.05L159.095 28.9553H156.414L160.854 38.7996L158.32 44.2775H160.919L167.76 28.9553H164.994ZM142.579 39.3521H145.072V23.1021H142.579V39.3521Z" fill="black"/>
</svg>
