<svg width="32" height="33" viewBox="0 0 32 33" fill="none" xmlns="http://www.w3.org/2000/svg">
<g clip-path="url(#clip0_4035_59328)">
<path d="M27 5.15186H5C4.46957 5.15186 3.96086 5.36257 3.58579 5.73764C3.21071 6.11271 3 6.62142 3 7.15186V25.1519C3 25.6823 3.21071 26.191 3.58579 26.5661C3.96086 26.9411 4.46957 27.1519 5 27.1519H27C27.5304 27.1519 28.0391 26.9411 28.4142 26.5661C28.7893 26.191 29 25.6823 29 25.1519V7.15186C29 6.62142 28.7893 6.11271 28.4142 5.73764C28.0391 5.36257 27.5304 5.15186 27 5.15186ZM25 22.1519C25.2652 22.1519 25.5196 22.2572 25.7071 22.4447C25.8946 22.6323 26 22.8866 26 23.1519C26 23.4171 25.8946 23.6714 25.7071 23.859C25.5196 24.0465 25.2652 24.1519 25 24.1519H7C6.73478 24.1519 6.48043 24.0465 6.29289 23.859C6.10536 23.6714 6 23.4171 6 23.1519V9.15186C6 8.88664 6.10536 8.63229 6.29289 8.44475C6.48043 8.25721 6.73478 8.15186 7 8.15186C7.26522 8.15186 7.51957 8.25721 7.70711 8.44475C7.89464 8.63229 8 8.88664 8 9.15186V17.0169L12.36 13.3831C12.5257 13.245 12.7316 13.1642 12.9469 13.1527C13.1623 13.1413 13.3756 13.1997 13.555 13.3194L18.93 16.9056L24.3563 12.3831C24.5601 12.2134 24.8231 12.1316 25.0873 12.1557C25.3515 12.1799 25.5953 12.308 25.765 12.5119C25.9347 12.7157 26.0165 12.9787 25.9924 13.2429C25.9682 13.5071 25.8401 13.7509 25.6362 13.9206L19.6362 18.9206C19.4706 19.0587 19.2647 19.1395 19.0493 19.151C18.834 19.1625 18.6207 19.104 18.4412 18.9844L13.0662 15.3981L8 19.6206V22.1519H25Z" fill="#FAFAFB"/>
</g>
<defs>
<clipPath id="clip0_4035_59328">
<rect width="32" height="32" fill="white" transform="translate(0 0.151855)"/>
</clipPath>
</defs>
</svg>
