<svg width="32" height="33" viewBox="0 0 32 33" fill="none" xmlns="http://www.w3.org/2000/svg">
<g clip-path="url(#clip0_4035_59324)">
<path d="M21 16.1519C21 17.1408 20.7068 18.1075 20.1573 18.9297C19.6079 19.752 18.827 20.3928 17.9134 20.7713C16.9998 21.1497 15.9945 21.2487 15.0245 21.0558C14.0546 20.8629 13.1637 20.3867 12.4645 19.6874C11.7652 18.9881 11.289 18.0972 11.0961 17.1273C10.9031 16.1574 11.0022 15.1521 11.3806 14.2384C11.759 13.3248 12.3999 12.5439 13.2221 11.9945C14.0444 11.4451 15.0111 11.1519 16 11.1519C17.3261 11.1519 18.5979 11.6786 19.5355 12.6163C20.4732 13.554 21 14.8258 21 16.1519ZM31 8.15186V24.1519C31 24.4171 30.8946 24.6714 30.7071 24.859C30.5196 25.0465 30.2652 25.1519 30 25.1519H2C1.73478 25.1519 1.48043 25.0465 1.29289 24.859C1.10536 24.6714 1 24.4171 1 24.1519V8.15186C1 7.88664 1.10536 7.63229 1.29289 7.44475C1.48043 7.25721 1.73478 7.15186 2 7.15186H30C30.2652 7.15186 30.5196 7.25721 30.7071 7.44475C30.8946 7.63229 31 7.88664 31 8.15186ZM29 13.9456C27.8645 13.6099 26.8311 12.9954 25.9938 12.1581C25.1565 11.3208 24.542 10.2874 24.2062 9.15186H7.79375C7.45801 10.2874 6.84351 11.3208 6.00623 12.1581C5.16895 12.9954 4.1355 13.6099 3 13.9456V18.3581C4.1355 18.6938 5.16895 19.3083 6.00623 20.1456C6.84351 20.9829 7.45801 22.0164 7.79375 23.1519H24.2062C24.542 22.0164 25.1565 20.9829 25.9938 20.1456C26.8311 19.3083 27.8645 18.6938 29 18.3581V13.9456Z" fill="#FAFAFB"/>
</g>
<defs>
<clipPath id="clip0_4035_59324">
<rect width="32" height="32" fill="white" transform="translate(0 0.151855)"/>
</clipPath>
</defs>
</svg>
