<svg width="32" height="33" viewBox="0 0 32 33" fill="none" xmlns="http://www.w3.org/2000/svg">
<g clip-path="url(#clip0_4035_59316)">
<path d="M17.7075 16.8594L12.7075 21.8594C12.5676 21.9994 12.3894 22.0947 12.1953 22.1334C12.0012 22.172 11.8 22.1522 11.6172 22.0765C11.4344 22.0007 11.2782 21.8724 11.1683 21.7078C11.0584 21.5432 10.9998 21.3498 11 21.1519V17.1519H3C2.73478 17.1519 2.48043 17.0465 2.29289 16.859C2.10536 16.6714 2 16.4171 2 16.1519C2 15.8866 2.10536 15.6323 2.29289 15.4447C2.48043 15.2572 2.73478 15.1519 3 15.1519H11V11.1519C10.9998 10.954 11.0584 10.7605 11.1683 10.5959C11.2782 10.4313 11.4344 10.303 11.6172 10.2272C11.8 10.1515 12.0012 10.1317 12.1953 10.1703C12.3894 10.209 12.5676 10.3043 12.7075 10.4444L17.7075 15.4444C17.8005 15.5372 17.8742 15.6475 17.9246 15.7689C17.9749 15.8903 18.0008 16.0204 18.0008 16.1519C18.0008 16.2833 17.9749 16.4134 17.9246 16.5348C17.8742 16.6562 17.8005 16.7665 17.7075 16.8594ZM24 4.15186H17C16.7348 4.15186 16.4804 4.25721 16.2929 4.44475C16.1054 4.63229 16 4.88664 16 5.15186C16 5.41707 16.1054 5.67143 16.2929 5.85896C16.4804 6.0465 16.7348 6.15186 17 6.15186H24V26.1519H17C16.7348 26.1519 16.4804 26.2572 16.2929 26.4447C16.1054 26.6323 16 26.8866 16 27.1519C16 27.4171 16.1054 27.6714 16.2929 27.859C16.4804 28.0465 16.7348 28.1519 17 28.1519H24C24.5304 28.1519 25.0391 27.9411 25.4142 27.5661C25.7893 27.191 26 26.6823 26 26.1519V6.15186C26 5.62142 25.7893 5.11271 25.4142 4.73764C25.0391 4.36257 24.5304 4.15186 24 4.15186Z" fill="#FAFAFB"/>
</g>
<defs>
<clipPath id="clip0_4035_59316">
<rect width="32" height="32" fill="white" transform="translate(0 0.151855)"/>
</clipPath>
</defs>
</svg>
