<svg width="32" height="33" viewBox="0 0 32 33" fill="none" xmlns="http://www.w3.org/2000/svg">
<g clip-path="url(#clip0_4035_59320)">
<path d="M21 14.1518C21 15.5363 20.5895 16.8896 19.8203 18.0408C19.0512 19.1919 17.9579 20.0891 16.6788 20.619C15.3997 21.1488 13.9923 21.2874 12.6344 21.0173C11.2765 20.7472 10.0293 20.0805 9.05029 19.1015C8.07132 18.1226 7.40464 16.8753 7.13454 15.5174C6.86444 14.1596 7.00307 12.7521 7.53288 11.473C8.0627 10.1939 8.9599 9.10068 10.111 8.33151C11.2622 7.56234 12.6156 7.1518 14 7.1518C15.8566 7.1518 17.637 7.88929 18.9498 9.20205C20.2625 10.5148 21 12.2953 21 14.1518ZM28.7075 28.8593C28.6147 28.9523 28.5044 29.026 28.383 29.0764C28.2616 29.1267 28.1315 29.1526 28 29.1526C27.8686 29.1526 27.7385 29.1267 27.6171 29.0764C27.4957 29.026 27.3854 28.9523 27.2925 28.8593L21.035 22.6005C18.8589 24.4109 16.0687 25.3127 13.2446 25.1183C10.4206 24.9239 7.78018 23.6483 5.87265 21.5569C3.96511 19.4654 2.93729 16.719 3.00296 13.8891C3.06864 11.0591 4.22276 8.36341 6.22527 6.36268C8.22777 4.36194 10.9245 3.2102 13.7545 3.14703C16.5845 3.08386 19.33 4.11411 21.4197 6.02349C23.5095 7.93287 24.7828 10.5744 24.9747 13.3986C25.1666 16.2228 24.2623 19.0123 22.45 21.1868L28.7075 27.4443C28.8005 27.5372 28.8743 27.6475 28.9246 27.7689C28.9749 27.8903 29.0008 28.0204 29.0008 28.1518C29.0008 28.2832 28.9749 28.4133 28.9246 28.5347C28.8743 28.6561 28.8005 28.7664 28.7075 28.8593ZM14 23.1518C15.7801 23.1518 17.5201 22.624 19.0002 21.635C20.4802 20.6461 21.6338 19.2405 22.315 17.5959C22.9961 15.9514 23.1744 14.1418 22.8271 12.396C22.4798 10.6502 21.6227 9.04651 20.364 7.78784C19.1053 6.52916 17.5017 5.672 15.7559 5.32473C14.01 4.97746 12.2004 5.15569 10.5559 5.83688C8.91135 6.51807 7.50575 7.67162 6.51681 9.15166C5.52788 10.6317 5.00004 12.3718 5.00004 14.1518C5.00269 16.5379 5.95175 18.8256 7.639 20.5128C9.32625 22.2001 11.6139 23.1491 14 23.1518Z" fill="#FAFAFB"/>
</g>
<defs>
<clipPath id="clip0_4035_59320">
<rect width="32" height="32" fill="white" transform="translate(0 0.151855)"/>
</clipPath>
</defs>
</svg>
