<svg width="17" height="17" viewBox="0 0 17 17" fill="none" xmlns="http://www.w3.org/2000/svg">
<g clip-path="url(#clip0_6606_45381)">
<path d="M8.39941 10.4556C9.50398 10.4556 10.3994 9.56014 10.3994 8.45557C10.3994 7.351 9.50398 6.45557 8.39941 6.45557C7.29484 6.45557 6.39941 7.351 6.39941 8.45557C6.39941 9.56014 7.29484 10.4556 8.39941 10.4556Z" stroke="#CC3366" stroke-width="0.8" stroke-linecap="round" stroke-linejoin="round"/>
<path d="M15.3994 4.45557H1.39941V12.4556H15.3994V4.45557Z" stroke="#CC3366" stroke-width="0.8" stroke-linecap="round" stroke-linejoin="round"/>
<path d="M15.3994 6.95557C14.7748 6.84971 14.1987 6.5522 13.7507 6.10426C13.3028 5.65632 13.0053 5.08014 12.8994 4.45557" stroke="#CC3366" stroke-width="0.8" stroke-linecap="round" stroke-linejoin="round"/>
<path d="M12.8994 12.4556C13.0053 11.831 13.3028 11.2548 13.7507 10.8069C14.1987 10.3589 14.7748 10.0614 15.3994 9.95557" stroke="#CC3366" stroke-width="0.8" stroke-linecap="round" stroke-linejoin="round"/>
<path d="M1.39941 9.95557C2.02399 10.0614 2.60017 10.3589 3.0481 10.8069C3.49604 11.2548 3.79356 11.831 3.89941 12.4556" stroke="#CC3366" stroke-width="0.8" stroke-linecap="round" stroke-linejoin="round"/>
<path d="M3.89941 4.45557C3.79356 5.08014 3.49604 5.65632 3.0481 6.10426C2.60017 6.5522 2.02399 6.84971 1.39941 6.95557" stroke="#CC3366" stroke-width="0.8" stroke-linecap="round" stroke-linejoin="round"/>
</g>
<defs>
<clipPath id="clip0_6606_45381">
<rect width="16" height="16" fill="white" transform="translate(0.399414 0.455566)"/>
</clipPath>
</defs>
</svg>
