<svg width="17" height="17" viewBox="0 0 17 17" fill="none" xmlns="http://www.w3.org/2000/svg">
<g clip-path="url(#clip0_6606_41845)">
<path d="M1.43848 12.9555C1.93791 12.1876 2.62122 11.5566 3.42639 11.1198C4.23156 10.683 5.13308 10.4542 6.0491 10.4542C6.96513 10.4542 7.86664 10.683 8.67181 11.1198C9.47698 11.5566 10.1603 12.1876 10.6597 12.9555" stroke="#CC3366" stroke-width="0.8" stroke-linecap="round" stroke-linejoin="round"/>
<path d="M11.5488 10.4556C12.4648 10.455 13.3664 10.6835 14.1716 11.1201C14.9768 11.5567 15.6602 12.1876 16.1595 12.9556" stroke="#CC3366" stroke-width="0.8" stroke-linecap="round" stroke-linejoin="round"/>
<path d="M6.04883 10.4556C7.84375 10.4556 9.29883 9.00049 9.29883 7.20557C9.29883 5.41064 7.84375 3.95557 6.04883 3.95557C4.2539 3.95557 2.79883 5.41064 2.79883 7.20557C2.79883 9.00049 4.2539 10.4556 6.04883 10.4556Z" stroke="#CC3366" stroke-width="0.8" stroke-linecap="round" stroke-linejoin="round"/>
<path d="M10.3418 4.18682C10.7864 4.0095 11.2646 3.93257 11.7424 3.96152C12.2201 3.99046 12.6856 4.12458 13.1055 4.35427C13.5254 4.58397 13.8894 4.90358 14.1715 5.29026C14.4535 5.67694 14.6467 6.12115 14.7372 6.59115C14.8277 7.06115 14.8132 7.54533 14.6949 8.0091C14.5766 8.47287 14.3573 8.90478 14.0526 9.27396C13.748 9.64315 13.3656 9.94049 12.9328 10.1448C12.4999 10.349 12.0273 10.4551 11.5487 10.4556" stroke="#CC3366" stroke-width="0.8" stroke-linecap="round" stroke-linejoin="round"/>
</g>
<defs>
<clipPath id="clip0_6606_41845">
<rect width="16" height="16" fill="white" transform="translate(0.798828 0.455566)"/>
</clipPath>
</defs>
</svg>
