<svg width="30" height="31" viewBox="0 0 30 31" fill="none" xmlns="http://www.w3.org/2000/svg">
<circle cx="15" cy="15.1279" r="15" fill="#333333"/>
<path fill-rule="evenodd" clip-rule="evenodd" d="M9.15697 11.2566C10.1896 11.2566 11.0268 10.4932 11.0268 9.55038C11.0268 8.60674 10.1896 7.84229 9.15697 7.84229C8.1233 7.84229 7.28613 8.60674 7.28613 9.55038C7.28613 10.4932 8.1233 11.2566 9.15697 11.2566Z" fill="#FDFDFD"/>
<path fill-rule="evenodd" clip-rule="evenodd" d="M7.71387 22.2328H11.0689V12.5566H7.71387V22.2328Z" fill="#FDFDFD"/>
<path fill-rule="evenodd" clip-rule="evenodd" d="M15.7782 16.851C15.7782 15.7413 16.3032 14.6562 17.5585 14.6562C18.8139 14.6562 19.1225 15.7413 19.1225 16.8244V22.1091H22.4625V16.6084C22.4625 12.7868 20.2035 12.1279 18.8139 12.1279C17.4254 12.1279 16.6595 12.5976 15.7782 13.7356V12.4329H12.4287V22.1091H15.7782V16.851Z" fill="#FDFDFD"/>
</svg>
