<svg width="74" height="80" viewBox="0 0 74 80" fill="none" xmlns="http://www.w3.org/2000/svg">
<g clip-path="url(#clip0_1792_10104)">
<path fill-rule="evenodd" clip-rule="evenodd" d="M10.9734 57.0165V78.7039C10.9734 79.4178 11.5498 80.0001 12.2565 80.0001H34.418C48.7534 80.0001 59.3218 73.6967 65.9147 64.6286C66.1556 64.2973 66.2258 63.9102 66.1167 63.514C66.0076 63.1176 65.7495 62.823 65.3735 62.665C41.2363 52.5163 20.2224 34.6368 2.33133 9.02765C2.00358 8.55847 1.43653 8.36549 0.894842 8.53942C0.352933 8.71312 -0.000183105 9.20067 -0.000183105 9.77484V20.3709C-0.000183105 20.663 0.0824277 20.914 0.255506 21.1478C9.52161 33.6526 21.2449 44.6271 35.4246 54.0715C36.0008 54.4552 36.1735 55.2314 35.8145 55.8271C35.4576 56.4203 34.7013 56.6237 34.0994 56.2888C24.6508 51.0315 15.8193 44.8403 7.6054 37.7153C7.21614 37.3777 6.69982 37.3044 6.23379 37.5208C5.76776 37.7371 5.48647 38.1804 5.48647 38.6986V45.8544C5.48647 46.2651 5.65619 46.6186 5.97563 46.8728C10.4898 50.4641 15.2698 53.8071 20.3151 56.9013C20.9021 57.2612 21.1046 58.0236 20.7746 58.6317C20.4451 59.2397 19.7014 59.478 19.0854 59.1735C16.9909 58.1385 14.9239 57.0423 12.8844 55.8861C12.4761 55.6543 12.0123 55.6586 11.6082 55.8976C11.2039 56.1369 10.9734 56.543 10.9734 57.0163V57.0165Z" fill="url(#paint0_linear_1792_10104)"/>
<path fill-rule="evenodd" clip-rule="evenodd" d="M8.43194 1.92046C24.3969 31.2805 43.9303 50.9259 67.0313 60.8567C67.6394 61.1181 68.3382 60.875 68.6577 60.2906C81.6053 36.6022 71.2841 -0.000244141 34.7803 -0.000244141H9.55661C9.09013 -0.000244141 8.68965 0.230603 8.45214 0.636287C8.21464 1.04197 8.20723 1.50752 8.43194 1.92046Z" fill="#CC3366"/>
</g>
<defs>
<linearGradient id="paint0_linear_1792_10104" x1="4.13803e-05" y1="44.238" x2="66.167" y2="44.238" gradientUnits="userSpaceOnUse">
<stop stop-color="#02894B"/>
<stop offset="1" stop-color="#3D503A"/>
</linearGradient>
<clipPath id="clip0_1792_10104">
<rect width="74" height="80" fill="white"/>
</clipPath>
</defs>
</svg>
