<svg width="24" height="25" viewBox="0 0 24 25" fill="none" xmlns="http://www.w3.org/2000/svg">
<path d="M11.1033 4.96848C11.4701 4.22532 12.5299 4.22532 12.8967 4.96849L14.5486 8.31495C14.6941 8.60979 14.9753 8.81425 15.3006 8.86181L18.9962 9.40197C19.8161 9.52182 20.1429 10.5297 19.5493 11.1078L16.8768 13.7109C16.6409 13.9406 16.5333 14.2717 16.5889 14.5963L17.2194 18.2725C17.3595 19.0894 16.502 19.7124 15.7684 19.3266L12.4655 17.5896C12.1741 17.4364 11.8259 17.4364 11.5345 17.5896L8.23163 19.3266C7.498 19.7124 6.64045 19.0894 6.78057 18.2725L7.41109 14.5963C7.46675 14.2717 7.35908 13.9406 7.12321 13.7109L4.45068 11.1078C3.85709 10.5297 4.18387 9.52182 5.00378 9.40197L8.69937 8.86181C9.02472 8.81425 9.30591 8.60979 9.45145 8.31495L11.1033 4.96848Z" fill="#F7AD30"/>
</svg>
