<svg width="30" height="31" viewBox="0 0 30 31" fill="none" xmlns="http://www.w3.org/2000/svg">
<circle cx="15" cy="15.1279" r="15" fill="#333333"/>
<path fill-rule="evenodd" clip-rule="evenodd" d="M21.8705 9.3907C21.4471 9.66189 20.475 10.056 19.9956 10.056V10.0568C19.4482 9.48493 18.6776 9.12793 17.8229 9.12793C16.1629 9.12793 14.8168 10.474 14.8168 12.1334C14.8168 12.3639 14.8435 12.5888 14.8929 12.8045H14.8924C12.6406 12.7454 10.1779 11.6167 8.69533 9.68504C7.78381 11.2628 8.57261 13.0175 9.60702 13.6569C9.25293 13.6836 8.60111 13.6161 8.2943 13.3167C8.27373 14.3639 8.77726 15.7515 10.6133 16.2548C10.2597 16.4451 9.63373 16.3905 9.36157 16.35C9.4571 17.234 10.695 18.3897 12.0487 18.3897C11.5662 18.9478 9.75095 19.96 7.71387 19.638C9.09734 20.4797 10.7098 20.9672 12.4164 20.9672C17.2662 20.9672 21.0326 17.0367 20.8299 12.1878C20.8291 12.1824 20.8291 12.1771 20.8286 12.1713C20.8291 12.1588 20.8299 12.1463 20.8299 12.1334C20.8299 12.1183 20.8286 12.1041 20.8282 12.0895C21.2697 11.7875 21.8621 11.2534 22.2853 10.5504C22.0398 10.6856 21.3035 10.9563 20.6183 11.0235C21.0581 10.7862 21.7096 10.0089 21.8705 9.3907Z" fill="#FDFDFD"/>
</svg>
