<svg width="36" height="37" viewBox="0 0 36 37" fill="none" xmlns="http://www.w3.org/2000/svg">
<path fill-rule="evenodd" clip-rule="evenodd" d="M0 20.8152C0 20.8152 12.1872 27.9192 28.9222 27.135H29.15C29.15 27.135 14.3222 33.0755 0.910937 22.1026C0.910937 22.1026 0.653028 21.8843 0.113867 20.9322L0 20.8152ZM15.0305 32.0505C15.0305 32.0505 27.2598 32.4016 35.6404 23.741L35.8681 23.507C35.8681 23.507 31.293 34.045 16.5107 32.6356C16.5107 32.6356 16.4948 32.6497 15.2582 32.1675L15.0305 32.0505ZM6.14882 30.529C6.14882 30.529 19.8448 39.2742 30.9719 30.7631L31.1996 30.6461C31.1996 30.6461 23.2608 41.9358 8.76777 32.9867C7.87956 32.3975 7.04153 31.7319 6.26269 30.9972L5.92109 30.412L6.14882 30.529ZM2.16347 25.4966C2.16347 25.4966 12.6392 30.6868 18.6742 30.295C18.6742 30.295 10.6516 33.6785 2.50508 26.0817L2.16347 25.4966ZM19.2435 25.6136C19.2435 25.6136 31.1939 23.64 35.2988 19.9959L35.5265 19.8789C35.5265 19.8789 31.8463 26.3414 20.4961 25.9647L18.9019 25.7306L19.2435 25.6136Z" fill="#0B53CB"/>
<path fill-rule="evenodd" clip-rule="evenodd" d="M23.7982 5.36481C23.7982 5.36481 12.6336 12.2945 9.90644 23.271C9.90644 23.271 6.47312 22.4621 6.03496 22.1007C6.03496 22.1007 7.26689 12.9736 15.1443 5.36481H5.69336V0.566406H29.9471V5.36481H23.7982Z" fill="#0B53CB"/>
<path fill-rule="evenodd" clip-rule="evenodd" d="M10.4766 23.6245C10.4766 23.6245 13.9097 15.0141 17.3086 12.2721C17.3086 12.2721 23.3652 16.3075 25.1654 16.2513V8.29297H29.834V21.5178C29.834 21.5178 26.2563 22.8356 25.2793 23.0393L25.1654 21.4008C25.1654 21.4008 19.7647 20.0837 18.5611 19.1772C18.5611 19.1772 15.5937 23.6467 15.1451 24.7948L10.4766 23.6245Z" fill="#0B53CB"/>
</svg>
